<?xml version="1.0" encoding="utf-8"?>
<!-- Generator: Adobe Illustrator 19.0.0, SVG Export Plug-In . SVG Version: 6.00 Build 0)  -->
<svg version="1.1" xmlns="http://www.w3.org/2000/svg" xmlns:xlink="http://www.w3.org/1999/xlink" x="0px" y="0px"
	 viewBox="0 0 615.3 110" style="enable-background:new 0 0 615.3 110;" xml:space="preserve">
<style type="text/css">
	.st0{fill:#FFFFFF;}
</style>
<g id="Layer_2">
	<rect id="XMLID_1_" x="0" y="0" width="616.9" height="110.7"/>
</g>
<g id="Layer_1">
	<g id="XMLID_25_">
		<path id="XMLID_45_" class="st0" d="M55.3,66.1c0-2.5-0.8-4.6-2.3-6.2c-1.5-1.6-3.4-3-5.7-4.2c-2.3-1.2-4.7-2.4-7.4-3.5
			c-2.7-1.1-5.1-2.4-7.4-3.9c-2.3-1.5-4.2-3.4-5.7-5.7c-1.5-2.2-2.3-5.1-2.3-8.6c0-4.9,1.7-8.8,5.2-11.7c3.5-2.9,8.4-4.3,14.7-4.3
			c3.7,0,7.1,0.3,10.1,0.8c3,0.5,5.4,1.2,7.1,2.1l-2.3,6.7c-1.4-0.7-3.4-1.3-6.1-2c-2.7-0.6-5.7-0.9-9.1-0.9c-4,0-7,0.9-9,2.7
			c-2,1.8-3,3.9-3,6.3c0,2.3,0.8,4.3,2.3,5.8c1.5,1.6,3.4,3,5.7,4.2c2.3,1.2,4.7,2.4,7.4,3.6c2.7,1.2,5.1,2.6,7.4,4.2
			s4.2,3.5,5.7,5.7c1.5,2.2,2.3,5,2.3,8.3c0,2.7-0.5,5.1-1.5,7.3c-1,2.2-2.4,4-4.3,5.6c-1.9,1.6-4.2,2.8-6.8,3.6
			c-2.7,0.8-5.7,1.3-9.1,1.3c-4.5,0-8.3-0.3-11.3-1c-3-0.7-5.3-1.5-6.9-2.3l2.5-6.7c1.4,0.8,3.5,1.5,6.2,2.2
			c2.7,0.7,5.8,1.1,9.2,1.1c2,0,3.9-0.2,5.6-0.6c1.8-0.4,3.3-1,4.5-1.9c1.3-0.9,2.3-2,3-3.3C55,69.5,55.3,67.9,55.3,66.1z"/>
		<path id="XMLID_43_" class="st0" d="M97.3,57.9L76.9,21h8.6L100,47.7l1.5,5.3h0.1l1.6-5.5L117.1,21h7.8l-20.2,36.8v24.4h-7.3V57.9
			z"/>
		<path id="XMLID_41_" class="st0" d="M152.9,42.1l-4.8-8.8h-0.4l0.9,8.8v40h-6.9V20h3.9l29.6,40.8l4.6,8.4h0.4l-1-8.4V21h6.9v62.1
			h-3.9L152.9,42.1z"/>
		<path id="XMLID_39_" class="st0" d="M249.9,27.5h-19.2v54.7h-7.3V27.5h-19.2V21h45.8V27.5z"/>
		<path id="XMLID_37_" class="st0" d="M304.8,54.1h-29.7v28h-7.3V21h7.3v26.7h29.7V21h7.3v61.2h-7.3V54.1z"/>
		<path id="XMLID_35_" class="st0" d="M336,21h33.6v6.5h-26.3v20h24.1v6.5h-24.1v21.8H370v6.5H336V21z"/>
		<path id="XMLID_33_" class="st0" d="M432,27.5h-19.2v54.7h-7.3V27.5h-19.2V21H432V27.5z"/>
		<path id="XMLID_31_" class="st0" d="M451.6,21h7.3v61.2h-7.3V21z"/>
		<path id="XMLID_29_" class="st0" d="M523.9,79.6c-1.8,1.3-4,2.3-6.7,2.8c-2.7,0.5-5.6,0.8-8.6,0.8c-3.7,0-7.2-0.6-10.4-1.9
			c-3.2-1.3-6.1-3.2-8.5-5.7c-2.4-2.6-4.3-5.8-5.7-9.8c-1.4-4-2.1-8.7-2.1-14.2c0-5.7,0.8-10.6,2.3-14.5c1.6-4,3.6-7.3,6.2-9.8
			s5.4-4.4,8.6-5.5s6.4-1.7,9.7-1.7c3.5,0,6.4,0.2,8.6,0.6c2.2,0.4,4.1,0.9,5.7,1.5l-1.8,6.5c-2.8-1.4-6.9-2.1-12.1-2.1
			c-2.4,0-4.8,0.4-7.1,1.3c-2.4,0.9-4.5,2.3-6.3,4.3c-1.9,2-3.3,4.6-4.5,7.8c-1.1,3.2-1.7,7.1-1.7,11.8c0,4.2,0.5,7.9,1.6,11
			c1.1,3.1,2.5,5.8,4.4,7.9s4,3.7,6.5,4.7c2.5,1,5.2,1.6,8.2,1.6c2.6,0,5-0.3,6.9-0.8c2-0.5,3.6-1.2,5-2L523.9,79.6z"/>
		<path id="XMLID_26_" class="st0" d="M574.1,64.7h-23.3l-6.3,17.5h-7.5l24.1-64h3.5l24.2,64h-8L574.1,64.7z M553.2,58.2h18.6
			L564.7,39l-2.3-9.5h-0.1l-2.3,9.7L553.2,58.2z"/>
	</g>
	<g id="XMLID_15_">
	</g>
	<g id="XMLID_16_">
	</g>
	<g id="XMLID_17_">
	</g>
	<g id="XMLID_18_">
	</g>
	<g id="XMLID_19_">
	</g>
	<g id="XMLID_20_">
	</g>
</g>
</svg>
